<svg viewBox="0 0 67.73 76.15" xmlns="http://www.w3.org/2000/svg" xmlns:xlink="http://www.w3.org/1999/xlink" width="67.729996" height="76.150009" fill="none" customFrame="#000000">
	<g id="组合 2">
		<path id="矢量 1" d="M16.93 28.3L16.93 47.85L33.86 38.07L16.93 28.3Z" fill="rgb(28,84,227)" fill-rule="nonzero" />
		<path id="矢量 2" d="M64.71 16.78C64.71 16.78 64.69 16.76 64.68 16.76L50.8 8.74002L16.93 28.3L33.86 38.08L64.64 20.31L64.69 20.28C65.3 19.93 65.71 19.28 65.71 18.53C65.71 17.78 65.31 17.14 64.71 16.79L64.71 16.78Z" fill="rgb(170,154,255)" fill-rule="nonzero" />
		<path id="矢量 3" d="M65.71 39.55C65.34 39.55 65 39.65 64.71 39.82C64.71 39.82 64.69 39.82 64.68 39.83L50.8 47.85L66.82 57.1L66.84 57.1C67.4 56.14 67.73 55.01 67.73 53.8C67.73 53.78 67.73 53.77 67.73 53.75C67.73 53.74 67.73 53.72 67.73 53.71L67.73 41.57C67.73 40.46 66.83 39.55 65.71 39.55Z" fill="rgb(0,234,209)" fill-rule="nonzero" />
		<path id="矢量 4" d="M66.82 57.1L50.8 47.85L16.94 67.4L30.49 75.22C30.49 75.22 30.54 75.24 30.56 75.26C31.54 75.83 32.67 76.15 33.88 76.15C35.09 76.15 36.22 75.82 37.2 75.26C37.22 75.25 37.25 75.24 37.27 75.22L64.36 59.58C64.37 59.58 64.38 59.57 64.39 59.56C65.41 58.98 66.26 58.13 66.85 57.11L66.83 57.11L66.82 57.1Z" fill="rgb(0,206,201)" fill-rule="nonzero" />
		<path id="矢量 5" d="M33.86 38.07L16.93 47.85L12.35 50.49L0.910015 57.1L0.890015 57.1C1.44001 58.06 2.21001 58.86 3.14001 59.44L3.39001 59.58L3.44001 59.61L3.50001 59.65L16.93 67.4L50.79 47.85L33.86 38.07Z" fill="rgb(0,234,209)" fill-rule="nonzero" />
		<path id="矢量 6" d="M37.25 0.92C36.93 0.73 36.59 0.58 36.25 0.45C36.19 0.43 36.13 0.4 36.07 0.38C36.04 0.37 36.01 0.36 35.97 0.35C35.31 0.13 34.59 0 33.85 0C33.11 0 32.4 0.12 31.73 0.35C31.7 0.36 31.67 0.37 31.63 0.38C31.57 0.4 31.51 0.42 31.45 0.45C31.11 0.58 30.78 0.73 30.45 0.92L3.39001 16.57C3.39001 16.57 3.38001 16.57 3.37001 16.58C2.34001 17.16 1.49001 18.01 0.890015 19.03L0.910015 19.03L16.93 28.29L50.8 8.75L37.25 0.92Z" fill="rgb(115,71,255)" fill-rule="nonzero" />
		<path id="矢量 7" d="M0.91 19.04L0.89 19.04C0.33 20 0 21.13 0 22.34L0 53.8C0 55 0.32 56.13 0.89 57.11L0.91 57.11L16.93 47.85L16.93 28.3L0.91 19.04Z" fill="rgb(4,35,218)" fill-rule="nonzero" />
	</g>
</svg>
