<svg viewBox="0 0 84.27 75" xmlns="http://www.w3.org/2000/svg" xmlns:xlink="http://www.w3.org/1999/xlink" width="84.269989" height="75.000000" fill="none" customFrame="#000000">
	<g id="组合 8">
		<path id="矢量 17" d="M34.82 28.93L19.85 75L52.01 75L37.04 28.93C36.69 27.85 35.16 27.85 34.81 28.93L34.82 28.93Z" fill="rgb(0,220,255)" fill-rule="nonzero" />
		<path id="矢量 18" d="M12.83 42.36C12.48 41.28 10.95 41.28 10.6 42.36L0 75L9.42 75L16.43 53.43L12.84 42.37L12.83 42.36Z" fill="rgb(0,220,255)" fill-rule="nonzero" />
		<path id="矢量 19" d="M29.52 20C29.17 18.92 27.64 18.92 27.29 20L9.42 75L19.85 75L33.62 32.63L29.52 20L29.52 20Z" fill="rgb(0,106,255)" fill-rule="nonzero" />
		<path id="矢量 20" d="M71.73 36.43C71.38 35.35 69.85 35.35 69.5 36.43L65.95 47.37L74.93 75L84.27 75L71.74 36.43L71.73 36.43Z" fill="rgb(0,220,255)" fill-rule="nonzero" />
		<path id="矢量 21" d="M50.82 0.81C50.47 -0.27 48.94 -0.27 48.59 0.81L38.25 32.63L52.02 75L74.92 75L50.82 0.81Z" fill="rgb(0,106,255)" fill-rule="nonzero" />
	</g>
</svg>
