<svg viewBox="0 0 463.956 464.661" xmlns="http://www.w3.org/2000/svg" xmlns:xlink="http://www.w3.org/1999/xlink" width="463.955994" height="464.660828" fill="none" customFrame="#000000">
	<path id="矢量 32" d="M418.766 93.7779C388.626 53.1679 345.086 22.0679 292.446 7.96793C239.806 -6.13207 186.536 -0.972071 140.136 19.1279L418.766 93.7779ZM40.7758 100.848C61.3758 70.8379 88.5858 46.4279 119.776 29.1479L325.036 84.1479C311.566 91.9179 297.136 105.308 285.966 120.028L454.736 165.248C459.526 181.078 462.646 197.488 463.956 214.238L40.7758 100.848ZM456.686 292.448C454.306 301.348 451.436 309.988 448.116 318.338L2.44584 198.928C3.74584 190.028 5.58584 181.118 7.96584 172.218C13.5658 151.308 21.8458 131.838 32.3458 114.078L250.436 172.518C241.706 184.998 233.756 198.558 226.756 213.068L460.516 275.708C459.446 281.298 458.166 286.878 456.676 292.468L456.686 292.448ZM13.4858 310.228C2.67584 279.958 -1.93416 247.218 0.745842 213.948L206.426 269.058C204.946 273.738 203.556 278.478 202.266 283.288C199.646 293.078 197.506 302.848 195.846 312.548L417.946 372.058C407.606 385.788 395.826 398.228 382.896 409.208L13.4858 310.228ZM172.206 456.688C102.096 437.898 48.1158 388.978 20.4758 327.588L187.846 372.438C187.576 388.048 188.546 403.258 190.676 417.848L312.286 450.428C268.876 466.388 220.286 469.568 172.206 456.688Z" fill="rgb(4,0,0)" fill-rule="evenodd" />
</svg>
